<svg id="Gruppe_1258" data-name="Gruppe 1258" xmlns="http://www.w3.org/2000/svg" xmlns:xlink="http://www.w3.org/1999/xlink" width="298" height="277.751" viewBox="0 0 298 277.751">
  <defs>
    <style>
      .cls-1, .cls-4 {
        fill: none;
      }

      .cls-2 {
        clip-path: url(#clip-path);
      }

      .cls-3 {
        fill: #ff2a9d;
      }

      .cls-4 {
        stroke: #000;
        stroke-miterlimit: 10;
        stroke-width: 2.609px;
      }

      .cls-5 {
        fill: #00dcdd;
      }
    </style>
    <clipPath id="clip-path">
      <rect id="Rechteck_21" data-name="Rechteck 21" class="cls-1" width="298" height="277.751"/>
    </clipPath>
  </defs>
  <path id="Pfad_188" data-name="Pfad 188" d="M37.1,75.932l-5.417,40.142-5.416-38.7L0,80.859v80.828l16.721-2.221V117.139l7.18,41.373,16.229-2.155L46.7,114.427v41.058l16.9-2.244V72.413Z" transform="translate(0 -43.698)"/>
  <path id="Pfad_189" data-name="Pfad 189" d="M205.49,62.841,187.768,65.2v80.827l17.723-2.354Z" transform="translate(-113.308 -37.921)"/>
  <path id="Pfad_190" data-name="Pfad 190" d="M278.342,53.056l-18.268,2.426V136.31l34.381-4.566V115.819l-16.113,2.14Z" transform="translate(-156.941 -32.017)"/>
  <path id="Pfad_191" data-name="Pfad 191" d="M387.294,103.042l7.058-.937,1.092,12.508,17.441-2.317-7.716-79.8-28.86,3.833-7.81,81.865,17.884-2.375Zm5.646-15.855-4.271.567,1.953-26.924Z" transform="translate(-222.37 -19.608)"/>
  <path id="Pfad_192" data-name="Pfad 192" d="M544.874,13.059l-17.723,2.354V40.6L522.31,16.056l-18.462,2.452V99.335l17.9-2.377V69.516l5.488,26.712,17.633-2.342Z" transform="translate(-304.047 -7.88)"/>
  <g id="Gruppe_29" data-name="Gruppe 29">
    <g id="Gruppe_28" data-name="Gruppe 28" class="cls-2">
      <path id="Pfad_193" data-name="Pfad 193" d="M670.785,3.846C667.224.595,662.032-.6,655.351.282c-6.612.878-11.728,3.4-15.207,7.5s-5.225,9.722-5.225,16.744V61.76c0,7.3,1.776,12.847,5.279,16.5h0c2.881,3.005,6.836,4.518,11.793,4.518a28.183,28.183,0,0,0,3.7-.257c6.636-.881,11.765-3.621,15.245-8.143,3.442-4.472,5.187-10.442,5.187-17.743V19.4c0-7.087-1.8-12.322-5.341-15.559M657.767,21.223V59.455a13.857,13.857,0,0,1-.643,4.73,1.96,1.96,0,0,1-1.773,1.365c-1.265.169-1.526-.348-1.667-.625a10.119,10.119,0,0,1-.679-4.4V22.384c0-4.773,2.02-5.041,2.78-5.142a3.463,3.463,0,0,1,.452-.033c.735,0,.88.319.964.5a8.755,8.755,0,0,1,.566,3.51" transform="translate(-383.141 0)"/>
      <path id="Pfad_194" data-name="Pfad 194" d="M41.5,392.229l-9.649-88.318L.877,308.024l18.658,148.9,42.951-5.7L81.144,297.365l-31.066,4.126Z" transform="translate(-0.529 -179.444)"/>
      <path id="Pfad_195" data-name="Pfad 195" d="M231.539,438.92l31.322-4.159v-151.2l-31.322,4.16Z" transform="translate(-139.722 -171.113)"/>
      <path id="Pfad_196" data-name="Pfad 196" d="M391.832,374.83c0,10.1-4.354,10.677-5.784,10.866a3.745,3.745,0,0,1-3.95-1.451c-.989-1.4-1.49-3.948-1.49-7.578V302.125a17.959,17.959,0,0,1,1.334-7.744c.78-1.574,2.236-2.482,4.45-2.776,3.019-.4,3.849.778,4.121,1.165.6.858,1.319,2.918,1.319,7.864v23.455l32.187-4.274v-26.74c0-11.672-3.548-20.3-10.545-25.649-6.944-5.3-16.171-7.231-27.427-5.736-12.882,1.711-22.492,6.911-28.565,15.455-6.013,8.465-9.062,20.344-9.062,35.308v68.489c0,12.205,3.432,21.52,10.2,27.686h0c5.474,4.992,12.468,7.506,20.851,7.506a47.441,47.441,0,0,0,6.23-.429c25.656-3.407,38.665-18.088,38.665-43.637V342.558l-32.533,4.32Z" transform="translate(-210.254 -157.62)"/>
      <path id="Pfad_197" data-name="Pfad 197" d="M608.53,319.677l28.019-3.721V285.3l-28.019,3.721V262.776l29.23-3.882V227.55L575.652,235.8V387l64.01-8.5V346.98l-31.132,4.134Z" transform="translate(-347.376 -137.315)"/>
      <path id="Pfad_198" data-name="Pfad 198" class="cls-3" d="M17.929,165.392V87.2l23.849-3.167,6.554,46.828,6.554-48.569L78.918,79.1v78.193l-14.291,1.9V102.845l-9.012,57.543L41.6,162.249l-9.558-55.077v56.346Z" transform="translate(-10.819 -47.733)"/>
      <path id="Pfad_199" data-name="Pfad 199" class="cls-4" d="M17.929,165.392V87.2l23.849-3.167,6.554,46.828,6.554-48.569L78.918,79.1v78.193l-14.291,1.9V102.845l-9.012,57.543L41.6,162.249l-9.558-55.077v56.346Z" transform="translate(-10.819 -47.733)"/>
      <path id="Pfad_200" data-name="Pfad 200" class="cls-3" d="M205.7,149.728V71.534l15.111-2.007v78.193Z" transform="translate(-124.127 -41.956)"/>
      <path id="Pfad_201" data-name="Pfad 201" class="cls-4" d="M205.7,149.728V71.534l15.111-2.007v78.193Z" transform="translate(-124.127 -41.956)"/>
      <path id="Pfad_202" data-name="Pfad 202" class="cls-3" d="M278,140.015V61.821l15.656-2.079v64.9l16.113-2.14V135.8Z" transform="translate(-167.761 -36.051)"/>
      <path id="Pfad_203" data-name="Pfad 203" class="cls-4" d="M278,140.015V61.821l15.656-2.079v64.9l16.113-2.14V135.8Z" transform="translate(-167.761 -36.051)"/>
      <path id="Pfad_204" data-name="Pfad 204" class="cls-3" d="M386.806,121.848l7.555-79.2,26.489-3.518,7.464,77.2-14.837,1.97L412.385,105.8l-9.466,1.257-.91,12.774Zm17.3-27.42,7.1-.943-3.459-39.32-.728.1Z" transform="translate(-233.418 -23.615)"/>
      <path id="Pfad_205" data-name="Pfad 205" class="cls-4" d="M386.806,121.848l7.555-79.2,26.489-3.518,7.464,77.2-14.837,1.97L412.385,105.8l-9.466,1.257-.91,12.774Zm17.3-27.42,7.1-.943-3.459-39.32-.728.1Z" transform="translate(-233.418 -23.615)"/>
      <path id="Pfad_206" data-name="Pfad 206" class="cls-3" d="M521.778,103.041V24.847l16.112-2.139,7.191,36.458V21.753l15.111-2.007V97.939L544.9,99.97l-7.828-38.1V101.01Z" transform="translate(-314.866 -11.916)"/>
      <path id="Pfad_207" data-name="Pfad 207" class="cls-4" d="M521.778,103.041V24.847l16.112-2.139,7.191,36.458V21.753l15.111-2.007V97.939L544.9,99.97l-7.828-38.1V101.01Z" transform="translate(-314.866 -11.916)"/>
      <path id="Pfad_208" data-name="Pfad 208" class="cls-3" d="M657.762,82.266q-4.915-5.127-4.915-15.6V29.44q0-10.1,4.915-15.9t14.383-7.053q9.466-1.257,14.382,3.233t4.916,14.594v37.23q0,10.561-4.916,16.947t-14.382,7.645q-9.468,1.257-14.383-3.87m17.2-12.707a15.021,15.021,0,0,0,.728-5.194V26.132a9.937,9.937,0,0,0-.683-4.051q-.682-1.5-2.776-1.225-3.914.52-3.914,6.437V65.435a11.558,11.558,0,0,0,.819,4.989,2.624,2.624,0,0,0,3,1.33,3.264,3.264,0,0,0,2.822-2.2" transform="translate(-393.96 -3.749)"/>
      <path id="Pfad_209" data-name="Pfad 209" class="cls-4" d="M657.762,82.266q-4.915-5.127-4.915-15.6V29.44q0-10.1,4.915-15.9t14.383-7.053q9.466-1.257,14.382,3.233t4.916,14.594v37.23q0,10.561-4.916,16.947t-14.382,7.645Q662.677,87.394,657.762,82.266Zm17.2-12.707a15.021,15.021,0,0,0,.728-5.194V26.132a9.937,9.937,0,0,0-.683-4.051q-.682-1.5-2.776-1.225-3.914.52-3.914,6.437V65.435a11.558,11.558,0,0,0,.819,4.989,2.624,2.624,0,0,0,3,1.33A3.264,3.264,0,0,0,674.967,69.558Z" transform="translate(-393.96 -3.749)"/>
      <path id="Pfad_210" data-name="Pfad 210" class="cls-5" d="M37.52,460.688l-18.333-146.3,28.365-3.767,10.9,99.73,9.685-102.463L96.5,304.116,78.164,455.29Z" transform="translate(-11.578 -183.518)"/>
      <path id="Pfad_211" data-name="Pfad 211" class="cls-4" d="M37.52,460.688l-18.333-146.3,28.365-3.767,10.9,99.73,9.685-102.463L96.5,304.116,78.164,455.29Z" transform="translate(-11.578 -183.518)"/>
      <path id="Pfad_212" data-name="Pfad 212" class="cls-5" d="M249.468,442.625V294.058l28.71-3.813V438.812Z" transform="translate(-150.541 -175.148)"/>
      <path id="Pfad_213" data-name="Pfad 213" class="cls-4" d="M249.468,442.625V294.058l28.71-3.813V438.812Z" transform="translate(-150.541 -175.148)"/>
      <path id="Pfad_214" data-name="Pfad 214" class="cls-5" d="M376.122,412.571q-9.774-8.9-9.772-26.721V317.361q0-22.137,8.821-34.552t27.673-14.917q16.429-2.182,26.462,5.48t10.031,24.611v25.6l-29.575,3.927V305.542q0-6.4-1.556-8.613t-5.362-1.71q-3.981.529-5.448,3.491a19.094,19.094,0,0,0-1.47,8.324v74.543q0,5.882,1.729,8.331a5.028,5.028,0,0,0,5.188,1.992q6.915-.918,6.918-12.161V352.931l29.921-3.973v28.018q0,37.358-37.531,42.342-16.258,2.16-26.029-6.747" transform="translate(-221.073 -161.368)"/>
      <path id="Pfad_215" data-name="Pfad 215" class="cls-4" d="M376.122,412.571q-9.774-8.9-9.772-26.721V317.361q0-22.137,8.821-34.552t27.673-14.917q16.429-2.182,26.462,5.48t10.031,24.611v25.6l-29.575,3.927V305.542q0-6.4-1.556-8.613t-5.362-1.71q-3.981.529-5.448,3.491a19.094,19.094,0,0,0-1.47,8.324v74.543q0,5.882,1.729,8.331a5.028,5.028,0,0,0,5.188,1.992q6.915-.918,6.918-12.161V352.931l29.921-3.973v28.018q0,37.358-37.531,42.342Q385.893,421.477,376.122,412.571Z" transform="translate(-221.073 -161.368)"/>
      <path id="Pfad_216" data-name="Pfad 216" class="cls-5" d="M593.581,390.7V242.137l59.5-7.9v28.71l-29.23,3.881v28.883l28.019-3.721v28.018l-28.019,3.721V357.8l31.132-4.134V382.55Z" transform="translate(-358.196 -141.349)"/>
      <path id="Pfad_217" data-name="Pfad 217" class="cls-4" d="M593.581,390.7V242.137l59.5-7.9v28.71l-29.23,3.881v28.883l28.019-3.721v28.018l-28.019,3.721V357.8l31.132-4.134V382.55Z" transform="translate(-358.196 -141.349)"/>
    </g>
  </g>
</svg>
